<mxfile host="app.diagrams.net" modified="2022-06-23T16:56:43.281Z" agent="5.0 (Windows NT 10.0; Win64; x64) AppleWebKit/537.36 (KHTML, like Gecko) Chrome/100.0.4896.160 YaBrowser/22.5.2.615 Yowser/2.5 Safari/537.36" etag="b8_n18H2d_i4UeM3Zyoy" version="18.0.6" type="github">
  <diagram id="r5q6gM0RzYR-yLAPajYv" name="Page-1">
    <mxGraphModel dx="1422" dy="789" grid="1" gridSize="10" guides="1" tooltips="1" connect="1" arrows="1" fold="1" page="1" pageScale="1" pageWidth="827" pageHeight="1169" math="0" shadow="0">
      <root>
        <mxCell id="0" />
        <mxCell id="1" parent="0" />
        <mxCell id="vRdf5hrsH9xCj4grp0DW-3" value="" style="edgeStyle=orthogonalEdgeStyle;rounded=0;orthogonalLoop=1;jettySize=auto;html=1;" edge="1" parent="1" source="vRdf5hrsH9xCj4grp0DW-1" target="vRdf5hrsH9xCj4grp0DW-2">
          <mxGeometry relative="1" as="geometry" />
        </mxCell>
        <mxCell id="vRdf5hrsH9xCj4grp0DW-1" value="generate (int source, int target, int c, int d, String path)" style="rounded=0;whiteSpace=wrap;html=1;" vertex="1" parent="1">
          <mxGeometry x="220" y="40" width="320" height="60" as="geometry" />
        </mxCell>
        <mxCell id="vRdf5hrsH9xCj4grp0DW-5" value="Yes" style="edgeStyle=orthogonalEdgeStyle;rounded=0;orthogonalLoop=1;jettySize=auto;html=1;" edge="1" parent="1" source="vRdf5hrsH9xCj4grp0DW-2" target="vRdf5hrsH9xCj4grp0DW-4">
          <mxGeometry relative="1" as="geometry" />
        </mxCell>
        <mxCell id="vRdf5hrsH9xCj4grp0DW-8" value="No" style="edgeStyle=orthogonalEdgeStyle;rounded=0;orthogonalLoop=1;jettySize=auto;html=1;" edge="1" parent="1" source="vRdf5hrsH9xCj4grp0DW-2" target="vRdf5hrsH9xCj4grp0DW-6">
          <mxGeometry relative="1" as="geometry" />
        </mxCell>
        <mxCell id="vRdf5hrsH9xCj4grp0DW-2" value="If source&amp;gt;target" style="rhombus;whiteSpace=wrap;html=1;rounded=0;" vertex="1" parent="1">
          <mxGeometry x="315" y="140" width="130" height="120" as="geometry" />
        </mxCell>
        <mxCell id="vRdf5hrsH9xCj4grp0DW-4" value="end" style="whiteSpace=wrap;html=1;rounded=0;" vertex="1" parent="1">
          <mxGeometry x="530" y="170" width="70" height="60" as="geometry" />
        </mxCell>
        <mxCell id="vRdf5hrsH9xCj4grp0DW-10" value="Yes" style="edgeStyle=orthogonalEdgeStyle;rounded=0;orthogonalLoop=1;jettySize=auto;html=1;" edge="1" parent="1" source="vRdf5hrsH9xCj4grp0DW-6" target="vRdf5hrsH9xCj4grp0DW-9">
          <mxGeometry relative="1" as="geometry" />
        </mxCell>
        <mxCell id="vRdf5hrsH9xCj4grp0DW-16" value="No" style="edgeStyle=orthogonalEdgeStyle;rounded=0;orthogonalLoop=1;jettySize=auto;html=1;" edge="1" parent="1" source="vRdf5hrsH9xCj4grp0DW-6" target="vRdf5hrsH9xCj4grp0DW-15">
          <mxGeometry relative="1" as="geometry" />
        </mxCell>
        <mxCell id="vRdf5hrsH9xCj4grp0DW-6" value="If source==target" style="rhombus;whiteSpace=wrap;html=1;rounded=0;" vertex="1" parent="1">
          <mxGeometry x="315" y="330" width="130" height="120" as="geometry" />
        </mxCell>
        <mxCell id="vRdf5hrsH9xCj4grp0DW-13" value="" style="edgeStyle=orthogonalEdgeStyle;rounded=0;orthogonalLoop=1;jettySize=auto;html=1;" edge="1" parent="1" source="vRdf5hrsH9xCj4grp0DW-9" target="vRdf5hrsH9xCj4grp0DW-12">
          <mxGeometry relative="1" as="geometry" />
        </mxCell>
        <mxCell id="vRdf5hrsH9xCj4grp0DW-9" value="&amp;nbsp;System.out.println(path)" style="whiteSpace=wrap;html=1;rounded=0;" vertex="1" parent="1">
          <mxGeometry x="530" y="360" width="180" height="60" as="geometry" />
        </mxCell>
        <mxCell id="vRdf5hrsH9xCj4grp0DW-12" value="end" style="whiteSpace=wrap;html=1;rounded=0;" vertex="1" parent="1">
          <mxGeometry x="565" y="450" width="110" height="60" as="geometry" />
        </mxCell>
        <mxCell id="vRdf5hrsH9xCj4grp0DW-17" style="edgeStyle=orthogonalEdgeStyle;rounded=0;orthogonalLoop=1;jettySize=auto;html=1;entryX=0;entryY=0.75;entryDx=0;entryDy=0;" edge="1" parent="1" source="vRdf5hrsH9xCj4grp0DW-15" target="vRdf5hrsH9xCj4grp0DW-1">
          <mxGeometry relative="1" as="geometry">
            <mxPoint x="120" y="70" as="targetPoint" />
            <Array as="points">
              <mxPoint x="190" y="540" />
              <mxPoint x="190" y="85" />
            </Array>
          </mxGeometry>
        </mxCell>
        <mxCell id="vRdf5hrsH9xCj4grp0DW-20" value="" style="edgeStyle=orthogonalEdgeStyle;rounded=0;orthogonalLoop=1;jettySize=auto;html=1;" edge="1" parent="1" source="vRdf5hrsH9xCj4grp0DW-15" target="vRdf5hrsH9xCj4grp0DW-19">
          <mxGeometry relative="1" as="geometry" />
        </mxCell>
        <mxCell id="vRdf5hrsH9xCj4grp0DW-15" value="source = source + c, &lt;br&gt;target = target,&lt;br&gt;c=c,&lt;br&gt;d=d,&lt;br&gt;path =path + &quot; k1&quot;" style="rounded=0;whiteSpace=wrap;html=1;" vertex="1" parent="1">
          <mxGeometry x="320" y="495" width="120" height="90" as="geometry" />
        </mxCell>
        <mxCell id="vRdf5hrsH9xCj4grp0DW-23" style="edgeStyle=orthogonalEdgeStyle;rounded=0;orthogonalLoop=1;jettySize=auto;html=1;entryX=0;entryY=0.25;entryDx=0;entryDy=0;" edge="1" parent="1" source="vRdf5hrsH9xCj4grp0DW-19" target="vRdf5hrsH9xCj4grp0DW-1">
          <mxGeometry relative="1" as="geometry">
            <Array as="points">
              <mxPoint x="140" y="655" />
              <mxPoint x="140" y="55" />
            </Array>
          </mxGeometry>
        </mxCell>
        <mxCell id="vRdf5hrsH9xCj4grp0DW-19" value="source = source * d, &lt;br&gt;target = target,&lt;br&gt;c=c,&lt;br&gt;d=d,&lt;br&gt;path =path + &quot; k2&quot;" style="rounded=0;whiteSpace=wrap;html=1;" vertex="1" parent="1">
          <mxGeometry x="320" y="610" width="120" height="90" as="geometry" />
        </mxCell>
        <mxCell id="vRdf5hrsH9xCj4grp0DW-25" value="&lt;table style=&quot;box-sizing: border-box; border-spacing: 0px; border-collapse: collapse; tab-size: 8; color: rgb(201, 209, 217); font-family: -apple-system, BlinkMacSystemFont, &amp;quot;Segoe UI&amp;quot;, Helvetica, Arial, sans-serif, &amp;quot;Apple Color Emoji&amp;quot;, &amp;quot;Segoe UI Emoji&amp;quot;; font-size: 14px; font-style: normal; font-variant-ligatures: normal; font-variant-caps: normal; font-weight: 400; letter-spacing: normal; orphans: 2; text-align: start; text-transform: none; widows: 2; word-spacing: 0px; -webkit-text-stroke-width: 0px; background-color: rgb(13, 17, 23); text-decoration-thickness: initial; text-decoration-style: initial; text-decoration-color: initial;&quot; data-tagsearch-path=&quot;src/main/java/lesson1/Task2.java&quot; data-tagsearch-lang=&quot;Java&quot; data-paste-markdown-skip=&quot;&quot; data-tab-size=&quot;8&quot; class=&quot;highlight tab-size js-file-line-container js-code-nav-container js-tagsearch-file&quot;&gt;&lt;tbody style=&quot;box-sizing: border-box;&quot;&gt;&lt;tr style=&quot;box-sizing: border-box;&quot;&gt;&lt;td style=&quot;box-sizing: border-box; padding: 0px 10px; position: relative; width: 50px; min-width: 50px; font-family: ui-monospace, SFMono-Regular, &amp;quot;SF Mono&amp;quot;, Menlo, Consolas, &amp;quot;Liberation Mono&amp;quot;, monospace; font-size: 12px; line-height: 20px; color: var(--color-fg-subtle); text-align: right; vertical-align: top; cursor: pointer; user-select: none;&quot; data-line-number=&quot;1&quot; class=&quot;blob-num js-line-number js-code-nav-line-number js-blob-rnum&quot; id=&quot;L1&quot;&gt;&lt;/td&gt;&lt;td style=&quot;box-sizing: border-box; padding: 0px 10px; position: relative; line-height: 20px; vertical-align: top; overflow: visible; font-family: ui-monospace, SFMono-Regular, &amp;quot;SF Mono&amp;quot;, Menlo, Consolas, &amp;quot;Liberation Mono&amp;quot;, monospace; font-size: 12px; color: var(--color-fg-default); overflow-wrap: normal;&quot; class=&quot;blob-code blob-code-inner js-file-line&quot; id=&quot;LC1&quot;&gt;&lt;span style=&quot;box-sizing: border-box; color: var(--color-prettylights-syntax-keyword);&quot; class=&quot;pl-k&quot;&gt;package&lt;/span&gt; &lt;span style=&quot;box-sizing: border-box;&quot; class=&quot;pl-s1&quot;&gt;lesson1&lt;/span&gt;;&lt;/td&gt;&lt;/tr&gt;&lt;tr style=&quot;box-sizing: border-box; background-color: transparent;&quot;&gt;&lt;td style=&quot;box-sizing: border-box; padding: 0px 10px; position: relative; width: 50px; min-width: 50px; font-family: ui-monospace, SFMono-Regular, &amp;quot;SF Mono&amp;quot;, Menlo, Consolas, &amp;quot;Liberation Mono&amp;quot;, monospace; font-size: 12px; line-height: 20px; color: var(--color-fg-subtle); text-align: right; vertical-align: top; cursor: pointer; user-select: none;&quot; data-line-number=&quot;2&quot; class=&quot;blob-num js-line-number js-code-nav-line-number js-blob-rnum&quot; id=&quot;L2&quot;&gt;&lt;/td&gt;&lt;td style=&quot;box-sizing: border-box; padding: 0px 10px; position: relative; line-height: 20px; vertical-align: top; overflow: visible; font-family: ui-monospace, SFMono-Regular, &amp;quot;SF Mono&amp;quot;, Menlo, Consolas, &amp;quot;Liberation Mono&amp;quot;, monospace; font-size: 12px; color: var(--color-fg-default); overflow-wrap: normal;&quot; class=&quot;blob-code blob-code-inner js-file-line&quot; id=&quot;LC2&quot;&gt;&#xa;&lt;/td&gt;&lt;/tr&gt;&lt;tr style=&quot;box-sizing: border-box;&quot;&gt;&lt;td style=&quot;box-sizing: border-box; padding: 0px 10px; position: relative; width: 50px; min-width: 50px; font-family: ui-monospace, SFMono-Regular, &amp;quot;SF Mono&amp;quot;, Menlo, Consolas, &amp;quot;Liberation Mono&amp;quot;, monospace; font-size: 12px; line-height: 20px; color: var(--color-fg-subtle); text-align: right; vertical-align: top; cursor: pointer; user-select: none;&quot; data-line-number=&quot;3&quot; class=&quot;blob-num js-line-number js-code-nav-line-number js-blob-rnum&quot; id=&quot;L3&quot;&gt;&lt;/td&gt;&lt;td style=&quot;box-sizing: border-box; padding: 0px 10px; position: relative; line-height: 20px; vertical-align: top; overflow: visible; font-family: ui-monospace, SFMono-Regular, &amp;quot;SF Mono&amp;quot;, Menlo, Consolas, &amp;quot;Liberation Mono&amp;quot;, monospace; font-size: 12px; color: var(--color-fg-default); overflow-wrap: normal;&quot; class=&quot;blob-code blob-code-inner js-file-line&quot; id=&quot;LC3&quot;&gt;&lt;span style=&quot;box-sizing: border-box; color: var(--color-prettylights-syntax-keyword);&quot; class=&quot;pl-k&quot;&gt;public&lt;/span&gt; &lt;span style=&quot;box-sizing: border-box; color: var(--color-prettylights-syntax-keyword);&quot; class=&quot;pl-k&quot;&gt;class&lt;/span&gt; &lt;span style=&quot;box-sizing: border-box; color: var(--color-prettylights-syntax-storage-modifier-import);&quot; class=&quot;pl-smi&quot;&gt;Task2&lt;/span&gt; {&lt;/td&gt;&lt;/tr&gt;&lt;tr style=&quot;box-sizing: border-box; background-color: transparent;&quot;&gt;&lt;td style=&quot;box-sizing: border-box; padding: 0px 10px; position: relative; width: 50px; min-width: 50px; font-family: ui-monospace, SFMono-Regular, &amp;quot;SF Mono&amp;quot;, Menlo, Consolas, &amp;quot;Liberation Mono&amp;quot;, monospace; font-size: 12px; line-height: 20px; color: var(--color-fg-subtle); text-align: right; vertical-align: top; cursor: pointer; user-select: none;&quot; data-line-number=&quot;4&quot; class=&quot;blob-num js-line-number js-code-nav-line-number js-blob-rnum&quot; id=&quot;L4&quot;&gt;&lt;/td&gt;&lt;td style=&quot;box-sizing: border-box; padding: 0px 10px; position: relative; line-height: 20px; vertical-align: top; overflow: visible; font-family: ui-monospace, SFMono-Regular, &amp;quot;SF Mono&amp;quot;, Menlo, Consolas, &amp;quot;Liberation Mono&amp;quot;, monospace; font-size: 12px; color: var(--color-fg-default); overflow-wrap: normal;&quot; class=&quot;blob-code blob-code-inner js-file-line&quot; id=&quot;LC4&quot;&gt;&#xa;&lt;/td&gt;&lt;/tr&gt;&lt;tr style=&quot;box-sizing: border-box;&quot;&gt;&lt;td style=&quot;box-sizing: border-box; padding: 0px 10px; position: relative; width: 50px; min-width: 50px; font-family: ui-monospace, SFMono-Regular, &amp;quot;SF Mono&amp;quot;, Menlo, Consolas, &amp;quot;Liberation Mono&amp;quot;, monospace; font-size: 12px; line-height: 20px; color: var(--color-fg-subtle); text-align: right; vertical-align: top; cursor: pointer; user-select: none;&quot; data-line-number=&quot;5&quot; class=&quot;blob-num js-line-number js-code-nav-line-number js-blob-rnum&quot; id=&quot;L5&quot;&gt;&lt;/td&gt;&lt;td style=&quot;box-sizing: border-box; padding: 0px 10px; position: relative; line-height: 20px; vertical-align: top; overflow: visible; font-family: ui-monospace, SFMono-Regular, &amp;quot;SF Mono&amp;quot;, Menlo, Consolas, &amp;quot;Liberation Mono&amp;quot;, monospace; font-size: 12px; color: var(--color-fg-default); overflow-wrap: normal;&quot; class=&quot;blob-code blob-code-inner js-file-line&quot; id=&quot;LC5&quot;&gt;    &lt;span style=&quot;box-sizing: border-box; color: var(--color-prettylights-syntax-keyword);&quot; class=&quot;pl-k&quot;&gt;public&lt;/span&gt; &lt;span style=&quot;box-sizing: border-box; color: var(--color-prettylights-syntax-keyword);&quot; class=&quot;pl-k&quot;&gt;static&lt;/span&gt; &lt;span style=&quot;box-sizing: border-box; color: var(--color-prettylights-syntax-storage-modifier-import);&quot; class=&quot;pl-smi&quot;&gt;void&lt;/span&gt; &lt;span style=&quot;box-sizing: border-box; color: var(--color-prettylights-syntax-entity);&quot; class=&quot;pl-en&quot;&gt;main&lt;/span&gt;(&lt;span style=&quot;box-sizing: border-box; color: var(--color-prettylights-syntax-storage-modifier-import);&quot; class=&quot;pl-smi&quot;&gt;String&lt;/span&gt;[] &lt;span style=&quot;box-sizing: border-box;&quot; class=&quot;pl-s1&quot;&gt;args&lt;/span&gt;) {&lt;/td&gt;&lt;/tr&gt;&lt;tr style=&quot;box-sizing: border-box; background-color: transparent;&quot;&gt;&lt;td style=&quot;box-sizing: border-box; padding: 0px 10px; position: relative; width: 50px; min-width: 50px; font-family: ui-monospace, SFMono-Regular, &amp;quot;SF Mono&amp;quot;, Menlo, Consolas, &amp;quot;Liberation Mono&amp;quot;, monospace; font-size: 12px; line-height: 20px; color: var(--color-fg-subtle); text-align: right; vertical-align: top; cursor: pointer; user-select: none;&quot; data-line-number=&quot;6&quot; class=&quot;blob-num js-line-number js-code-nav-line-number js-blob-rnum&quot; id=&quot;L6&quot;&gt;&lt;/td&gt;&lt;td style=&quot;box-sizing: border-box; padding: 0px 10px; position: relative; line-height: 20px; vertical-align: top; overflow: visible; font-family: ui-monospace, SFMono-Regular, &amp;quot;SF Mono&amp;quot;, Menlo, Consolas, &amp;quot;Liberation Mono&amp;quot;, monospace; font-size: 12px; color: var(--color-fg-default); overflow-wrap: normal;&quot; class=&quot;blob-code blob-code-inner js-file-line&quot; id=&quot;LC6&quot;&gt;        &lt;span style=&quot;box-sizing: border-box; color: var(--color-prettylights-syntax-entity);&quot; class=&quot;pl-en&quot;&gt;&lt;span style=&quot;box-sizing: border-box;&quot; data-hydro-click-hmac=&quot;ca16bb23876fe2018751aabccfc65f5e2887738addc87f97362fc9703339b68c&quot; data-hydro-click=&quot;{&amp;quot;event_type&amp;quot;:&amp;quot;code_navigation.click_on_symbol&amp;quot;,&amp;quot;payload&amp;quot;:{&amp;quot;action&amp;quot;:&amp;quot;click_on_symbol&amp;quot;,&amp;quot;repository_id&amp;quot;:503321403,&amp;quot;ref&amp;quot;:&amp;quot;main&amp;quot;,&amp;quot;language&amp;quot;:&amp;quot;Java&amp;quot;,&amp;quot;backend&amp;quot;:&amp;quot;ALEPH_FUZZY&amp;quot;,&amp;quot;code_nav_context&amp;quot;:&amp;quot;BLOB_VIEW&amp;quot;,&amp;quot;retry_backend&amp;quot;:&amp;quot;&amp;quot;,&amp;quot;originating_url&amp;quot;:&amp;quot;https://github.com/snow-wh/GeekBrainsPI/find-definition?q=generate&amp;amp;blob_path=src%2Fmain%2Fjava%2Flesson1%2FTask2.java&amp;amp;ref=main&amp;amp;language=Java&amp;amp;row=5&amp;amp;col=8&amp;amp;code_nav_context=BLOB_VIEW&amp;quot;,&amp;quot;user_id&amp;quot;:98263548}}&quot; class=&quot;pl-token&quot;&gt;generate&lt;/span&gt;&lt;/span&gt;(&lt;span style=&quot;box-sizing: border-box; color: var(--color-prettylights-syntax-constant);&quot; class=&quot;pl-c1&quot;&gt;1&lt;/span&gt;,&lt;span style=&quot;box-sizing: border-box; color: var(--color-prettylights-syntax-constant);&quot; class=&quot;pl-c1&quot;&gt;7&lt;/span&gt;,&lt;span style=&quot;box-sizing: border-box; color: var(--color-prettylights-syntax-constant);&quot; class=&quot;pl-c1&quot;&gt;1&lt;/span&gt;,&lt;span style=&quot;box-sizing: border-box; color: var(--color-prettylights-syntax-constant);&quot; class=&quot;pl-c1&quot;&gt;2&lt;/span&gt;,&lt;span style=&quot;box-sizing: border-box; color: var(--color-prettylights-syntax-string);&quot; class=&quot;pl-s&quot;&gt;&quot;&quot;&lt;/span&gt;);&lt;/td&gt;&lt;/tr&gt;&lt;tr style=&quot;box-sizing: border-box;&quot;&gt;&lt;td style=&quot;box-sizing: border-box; padding: 0px 10px; position: relative; width: 50px; min-width: 50px; font-family: ui-monospace, SFMono-Regular, &amp;quot;SF Mono&amp;quot;, Menlo, Consolas, &amp;quot;Liberation Mono&amp;quot;, monospace; font-size: 12px; line-height: 20px; color: var(--color-fg-subtle); text-align: right; vertical-align: top; cursor: pointer; user-select: none;&quot; data-line-number=&quot;7&quot; class=&quot;blob-num js-line-number js-code-nav-line-number js-blob-rnum&quot; id=&quot;L7&quot;&gt;&lt;/td&gt;&lt;td style=&quot;box-sizing: border-box; padding: 0px 10px; position: relative; line-height: 20px; vertical-align: top; overflow: visible; font-family: ui-monospace, SFMono-Regular, &amp;quot;SF Mono&amp;quot;, Menlo, Consolas, &amp;quot;Liberation Mono&amp;quot;, monospace; font-size: 12px; color: var(--color-fg-default); overflow-wrap: normal;&quot; class=&quot;blob-code blob-code-inner js-file-line&quot; id=&quot;LC7&quot;&gt;    }&lt;/td&gt;&lt;/tr&gt;&lt;tr style=&quot;box-sizing: border-box; background-color: transparent;&quot;&gt;&lt;td style=&quot;box-sizing: border-box; padding: 0px 10px; position: relative; width: 50px; min-width: 50px; font-family: ui-monospace, SFMono-Regular, &amp;quot;SF Mono&amp;quot;, Menlo, Consolas, &amp;quot;Liberation Mono&amp;quot;, monospace; font-size: 12px; line-height: 20px; color: var(--color-fg-subtle); text-align: right; vertical-align: top; cursor: pointer; user-select: none;&quot; data-line-number=&quot;8&quot; class=&quot;blob-num js-line-number js-code-nav-line-number js-blob-rnum&quot; id=&quot;L8&quot;&gt;&lt;/td&gt;&lt;td style=&quot;box-sizing: border-box; padding: 0px 10px; position: relative; line-height: 20px; vertical-align: top; overflow: visible; font-family: ui-monospace, SFMono-Regular, &amp;quot;SF Mono&amp;quot;, Menlo, Consolas, &amp;quot;Liberation Mono&amp;quot;, monospace; font-size: 12px; color: var(--color-fg-default); overflow-wrap: normal;&quot; class=&quot;blob-code blob-code-inner js-file-line&quot; id=&quot;LC8&quot;&gt;&#xa;&lt;/td&gt;&lt;/tr&gt;&lt;tr style=&quot;box-sizing: border-box;&quot;&gt;&lt;td style=&quot;box-sizing: border-box; padding: 0px 10px; position: relative; width: 50px; min-width: 50px; font-family: ui-monospace, SFMono-Regular, &amp;quot;SF Mono&amp;quot;, Menlo, Consolas, &amp;quot;Liberation Mono&amp;quot;, monospace; font-size: 12px; line-height: 20px; color: var(--color-fg-subtle); text-align: right; vertical-align: top; cursor: pointer; user-select: none;&quot; data-line-number=&quot;9&quot; class=&quot;blob-num js-line-number js-code-nav-line-number js-blob-rnum&quot; id=&quot;L9&quot;&gt;&lt;/td&gt;&lt;td style=&quot;box-sizing: border-box; padding: 0px 10px; position: relative; line-height: 20px; vertical-align: top; overflow: visible; font-family: ui-monospace, SFMono-Regular, &amp;quot;SF Mono&amp;quot;, Menlo, Consolas, &amp;quot;Liberation Mono&amp;quot;, monospace; font-size: 12px; color: var(--color-fg-default); overflow-wrap: normal;&quot; class=&quot;blob-code blob-code-inner js-file-line&quot; id=&quot;LC9&quot;&gt;    &lt;span style=&quot;box-sizing: border-box; color: var(--color-prettylights-syntax-keyword);&quot; class=&quot;pl-k&quot;&gt;public&lt;/span&gt; &lt;span style=&quot;box-sizing: border-box; color: var(--color-prettylights-syntax-keyword);&quot; class=&quot;pl-k&quot;&gt;static&lt;/span&gt; &lt;span style=&quot;box-sizing: border-box; color: var(--color-prettylights-syntax-storage-modifier-import);&quot; class=&quot;pl-smi&quot;&gt;void&lt;/span&gt;  &lt;span style=&quot;box-sizing: border-box; color: var(--color-prettylights-syntax-entity);&quot; class=&quot;pl-en&quot;&gt;&lt;span style=&quot;box-sizing: border-box;&quot; data-hydro-click-hmac=&quot;6b117cdf845cd597ed24dd3c9308874cfd35c5ddaeaa43df70c4383b3b3aa9eb&quot; data-hydro-click=&quot;{&amp;quot;event_type&amp;quot;:&amp;quot;code_navigation.click_on_symbol&amp;quot;,&amp;quot;payload&amp;quot;:{&amp;quot;action&amp;quot;:&amp;quot;click_on_symbol&amp;quot;,&amp;quot;repository_id&amp;quot;:503321403,&amp;quot;ref&amp;quot;:&amp;quot;main&amp;quot;,&amp;quot;language&amp;quot;:&amp;quot;Java&amp;quot;,&amp;quot;backend&amp;quot;:&amp;quot;ALEPH_FUZZY&amp;quot;,&amp;quot;code_nav_context&amp;quot;:&amp;quot;BLOB_VIEW&amp;quot;,&amp;quot;retry_backend&amp;quot;:&amp;quot;&amp;quot;,&amp;quot;originating_url&amp;quot;:&amp;quot;https://github.com/snow-wh/GeekBrainsPI/find-definition?q=generate&amp;amp;blob_path=src%2Fmain%2Fjava%2Flesson1%2FTask2.java&amp;amp;ref=main&amp;amp;language=Java&amp;amp;row=8&amp;amp;col=24&amp;amp;code_nav_context=BLOB_VIEW&amp;quot;,&amp;quot;user_id&amp;quot;:98263548}}&quot; class=&quot;pl-token&quot;&gt;generate&lt;/span&gt;&lt;/span&gt; (&lt;span style=&quot;box-sizing: border-box; color: var(--color-prettylights-syntax-storage-modifier-import);&quot; class=&quot;pl-smi&quot;&gt;int&lt;/span&gt; &lt;span style=&quot;box-sizing: border-box;&quot; class=&quot;pl-s1&quot;&gt;source&lt;/span&gt;, &lt;span style=&quot;box-sizing: border-box; color: var(--color-prettylights-syntax-storage-modifier-import);&quot; class=&quot;pl-smi&quot;&gt;int&lt;/span&gt; &lt;span style=&quot;box-sizing: border-box;&quot; class=&quot;pl-s1&quot;&gt;target&lt;/span&gt;, &lt;span style=&quot;box-sizing: border-box; color: var(--color-prettylights-syntax-storage-modifier-import);&quot; class=&quot;pl-smi&quot;&gt;int&lt;/span&gt; &lt;span style=&quot;box-sizing: border-box;&quot; class=&quot;pl-s1&quot;&gt;c&lt;/span&gt;, &lt;span style=&quot;box-sizing: border-box; color: var(--color-prettylights-syntax-storage-modifier-import);&quot; class=&quot;pl-smi&quot;&gt;int&lt;/span&gt; &lt;span style=&quot;box-sizing: border-box;&quot; class=&quot;pl-s1&quot;&gt;d&lt;/span&gt;, &lt;span style=&quot;box-sizing: border-box; color: var(--color-prettylights-syntax-storage-modifier-import);&quot; class=&quot;pl-smi&quot;&gt;String&lt;/span&gt; &lt;span style=&quot;box-sizing: border-box;&quot; class=&quot;pl-s1&quot;&gt;path&lt;/span&gt;){&lt;/td&gt;&lt;/tr&gt;&lt;tr style=&quot;box-sizing: border-box; background-color: transparent;&quot;&gt;&lt;td style=&quot;box-sizing: border-box; padding: 0px 10px; position: relative; width: 50px; min-width: 50px; font-family: ui-monospace, SFMono-Regular, &amp;quot;SF Mono&amp;quot;, Menlo, Consolas, &amp;quot;Liberation Mono&amp;quot;, monospace; font-size: 12px; line-height: 20px; color: var(--color-fg-subtle); text-align: right; vertical-align: top; cursor: pointer; user-select: none;&quot; data-line-number=&quot;10&quot; class=&quot;blob-num js-line-number js-code-nav-line-number js-blob-rnum&quot; id=&quot;L10&quot;&gt;&lt;/td&gt;&lt;td style=&quot;box-sizing: border-box; padding: 0px 10px; position: relative; line-height: 20px; vertical-align: top; overflow: visible; font-family: ui-monospace, SFMono-Regular, &amp;quot;SF Mono&amp;quot;, Menlo, Consolas, &amp;quot;Liberation Mono&amp;quot;, monospace; font-size: 12px; color: var(--color-fg-default); overflow-wrap: normal;&quot; class=&quot;blob-code blob-code-inner js-file-line&quot; id=&quot;LC10&quot;&gt;        &lt;span style=&quot;box-sizing: border-box; color: var(--color-prettylights-syntax-keyword);&quot; class=&quot;pl-k&quot;&gt;if&lt;/span&gt; (&lt;span style=&quot;box-sizing: border-box;&quot; class=&quot;pl-s1&quot;&gt;source&lt;/span&gt; &amp;gt; &lt;span style=&quot;box-sizing: border-box;&quot; class=&quot;pl-s1&quot;&gt;target&lt;/span&gt;) &lt;span style=&quot;box-sizing: border-box; color: var(--color-prettylights-syntax-keyword);&quot; class=&quot;pl-k&quot;&gt;return&lt;/span&gt;;&lt;/td&gt;&lt;/tr&gt;&lt;tr style=&quot;box-sizing: border-box;&quot;&gt;&lt;td style=&quot;box-sizing: border-box; padding: 0px 10px; position: relative; width: 50px; min-width: 50px; font-family: ui-monospace, SFMono-Regular, &amp;quot;SF Mono&amp;quot;, Menlo, Consolas, &amp;quot;Liberation Mono&amp;quot;, monospace; font-size: 12px; line-height: 20px; color: var(--color-fg-subtle); text-align: right; vertical-align: top; cursor: pointer; user-select: none;&quot; data-line-number=&quot;11&quot; class=&quot;blob-num js-line-number js-code-nav-line-number js-blob-rnum&quot; id=&quot;L11&quot;&gt;&lt;/td&gt;&lt;td style=&quot;box-sizing: border-box; padding: 0px 10px; position: relative; line-height: 20px; vertical-align: top; overflow: visible; font-family: ui-monospace, SFMono-Regular, &amp;quot;SF Mono&amp;quot;, Menlo, Consolas, &amp;quot;Liberation Mono&amp;quot;, monospace; font-size: 12px; color: var(--color-fg-default); overflow-wrap: normal;&quot; class=&quot;blob-code blob-code-inner js-file-line&quot; id=&quot;LC11&quot;&gt;        &lt;span style=&quot;box-sizing: border-box; color: var(--color-prettylights-syntax-keyword);&quot; class=&quot;pl-k&quot;&gt;if&lt;/span&gt;(&lt;span style=&quot;box-sizing: border-box;&quot; class=&quot;pl-s1&quot;&gt;source&lt;/span&gt; == &lt;span style=&quot;box-sizing: border-box;&quot; class=&quot;pl-s1&quot;&gt;target&lt;/span&gt;){&lt;/td&gt;&lt;/tr&gt;&lt;tr style=&quot;box-sizing: border-box; background-color: transparent;&quot;&gt;&lt;td style=&quot;box-sizing: border-box; padding: 0px 10px; position: relative; width: 50px; min-width: 50px; font-family: ui-monospace, SFMono-Regular, &amp;quot;SF Mono&amp;quot;, Menlo, Consolas, &amp;quot;Liberation Mono&amp;quot;, monospace; font-size: 12px; line-height: 20px; color: var(--color-fg-subtle); text-align: right; vertical-align: top; cursor: pointer; user-select: none;&quot; data-line-number=&quot;12&quot; class=&quot;blob-num js-line-number js-code-nav-line-number js-blob-rnum&quot; id=&quot;L12&quot;&gt;&lt;/td&gt;&lt;td style=&quot;box-sizing: border-box; padding: 0px 10px; position: relative; line-height: 20px; vertical-align: top; overflow: visible; font-family: ui-monospace, SFMono-Regular, &amp;quot;SF Mono&amp;quot;, Menlo, Consolas, &amp;quot;Liberation Mono&amp;quot;, monospace; font-size: 12px; color: var(--color-fg-default); overflow-wrap: normal;&quot; class=&quot;blob-code blob-code-inner js-file-line&quot; id=&quot;LC12&quot;&gt;            &lt;span style=&quot;box-sizing: border-box; color: var(--color-prettylights-syntax-storage-modifier-import);&quot; class=&quot;pl-smi&quot;&gt;System&lt;/span&gt;.&lt;span style=&quot;box-sizing: border-box;&quot; class=&quot;pl-s1&quot;&gt;out&lt;/span&gt;.&lt;span style=&quot;box-sizing: border-box; color: var(--color-prettylights-syntax-entity);&quot; class=&quot;pl-en&quot;&gt;println&lt;/span&gt;(&lt;span style=&quot;box-sizing: border-box;&quot; class=&quot;pl-s1&quot;&gt;path&lt;/span&gt;);&lt;/td&gt;&lt;/tr&gt;&lt;tr style=&quot;box-sizing: border-box;&quot;&gt;&lt;td style=&quot;box-sizing: border-box; padding: 0px 10px; position: relative; width: 50px; min-width: 50px; font-family: ui-monospace, SFMono-Regular, &amp;quot;SF Mono&amp;quot;, Menlo, Consolas, &amp;quot;Liberation Mono&amp;quot;, monospace; font-size: 12px; line-height: 20px; color: var(--color-fg-subtle); text-align: right; vertical-align: top; cursor: pointer; user-select: none;&quot; data-line-number=&quot;13&quot; class=&quot;blob-num js-line-number js-code-nav-line-number js-blob-rnum&quot; id=&quot;L13&quot;&gt;&lt;/td&gt;&lt;td style=&quot;box-sizing: border-box; padding: 0px 10px; position: relative; line-height: 20px; vertical-align: top; overflow: visible; font-family: ui-monospace, SFMono-Regular, &amp;quot;SF Mono&amp;quot;, Menlo, Consolas, &amp;quot;Liberation Mono&amp;quot;, monospace; font-size: 12px; color: var(--color-fg-default); overflow-wrap: normal;&quot; class=&quot;blob-code blob-code-inner js-file-line&quot; id=&quot;LC13&quot;&gt;            &lt;span style=&quot;box-sizing: border-box; color: var(--color-prettylights-syntax-keyword);&quot; class=&quot;pl-k&quot;&gt;return&lt;/span&gt;;&lt;/td&gt;&lt;/tr&gt;&lt;tr style=&quot;box-sizing: border-box; background-color: transparent;&quot;&gt;&lt;td style=&quot;box-sizing: border-box; padding: 0px 10px; position: relative; width: 50px; min-width: 50px; font-family: ui-monospace, SFMono-Regular, &amp;quot;SF Mono&amp;quot;, Menlo, Consolas, &amp;quot;Liberation Mono&amp;quot;, monospace; font-size: 12px; line-height: 20px; color: var(--color-fg-subtle); text-align: right; vertical-align: top; cursor: pointer; user-select: none;&quot; data-line-number=&quot;14&quot; class=&quot;blob-num js-line-number js-code-nav-line-number js-blob-rnum&quot; id=&quot;L14&quot;&gt;&lt;/td&gt;&lt;td style=&quot;box-sizing: border-box; padding: 0px 10px; position: relative; line-height: 20px; vertical-align: top; overflow: visible; font-family: ui-monospace, SFMono-Regular, &amp;quot;SF Mono&amp;quot;, Menlo, Consolas, &amp;quot;Liberation Mono&amp;quot;, monospace; font-size: 12px; color: var(--color-fg-default); overflow-wrap: normal;&quot; class=&quot;blob-code blob-code-inner js-file-line&quot; id=&quot;LC14&quot;&gt;        }&lt;/td&gt;&lt;/tr&gt;&lt;tr style=&quot;box-sizing: border-box;&quot;&gt;&lt;td style=&quot;box-sizing: border-box; padding: 0px 10px; position: relative; width: 50px; min-width: 50px; font-family: ui-monospace, SFMono-Regular, &amp;quot;SF Mono&amp;quot;, Menlo, Consolas, &amp;quot;Liberation Mono&amp;quot;, monospace; font-size: 12px; line-height: 20px; color: var(--color-fg-subtle); text-align: right; vertical-align: top; cursor: pointer; user-select: none;&quot; data-line-number=&quot;15&quot; class=&quot;blob-num js-line-number js-code-nav-line-number js-blob-rnum&quot; id=&quot;L15&quot;&gt;&lt;/td&gt;&lt;td style=&quot;box-sizing: border-box; padding: 0px 10px; position: relative; line-height: 20px; vertical-align: top; overflow: visible; font-family: ui-monospace, SFMono-Regular, &amp;quot;SF Mono&amp;quot;, Menlo, Consolas, &amp;quot;Liberation Mono&amp;quot;, monospace; font-size: 12px; color: var(--color-fg-default); overflow-wrap: normal;&quot; class=&quot;blob-code blob-code-inner js-file-line&quot; id=&quot;LC15&quot;&gt;&#xa;&lt;/td&gt;&lt;/tr&gt;&lt;tr style=&quot;box-sizing: border-box; background-color: transparent;&quot;&gt;&lt;td style=&quot;box-sizing: border-box; padding: 0px 10px; position: relative; width: 50px; min-width: 50px; font-family: ui-monospace, SFMono-Regular, &amp;quot;SF Mono&amp;quot;, Menlo, Consolas, &amp;quot;Liberation Mono&amp;quot;, monospace; font-size: 12px; line-height: 20px; color: var(--color-fg-subtle); text-align: right; vertical-align: top; cursor: pointer; user-select: none;&quot; data-line-number=&quot;16&quot; class=&quot;blob-num js-line-number js-code-nav-line-number js-blob-rnum&quot; id=&quot;L16&quot;&gt;&lt;/td&gt;&lt;td style=&quot;box-sizing: border-box; padding: 0px 10px; position: relative; line-height: 20px; vertical-align: top; overflow: visible; font-family: ui-monospace, SFMono-Regular, &amp;quot;SF Mono&amp;quot;, Menlo, Consolas, &amp;quot;Liberation Mono&amp;quot;, monospace; font-size: 12px; color: var(--color-fg-default); overflow-wrap: normal;&quot; class=&quot;blob-code blob-code-inner js-file-line&quot; id=&quot;LC16&quot;&gt;        &lt;span style=&quot;box-sizing: border-box; color: var(--color-prettylights-syntax-entity);&quot; class=&quot;pl-en&quot;&gt;generate&lt;/span&gt;(&lt;span style=&quot;box-sizing: border-box;&quot; class=&quot;pl-s1&quot;&gt;source&lt;/span&gt; + &lt;span style=&quot;box-sizing: border-box;&quot; class=&quot;pl-s1&quot;&gt;c&lt;/span&gt;, &lt;span style=&quot;box-sizing: border-box;&quot; class=&quot;pl-s1&quot;&gt;target&lt;/span&gt;,&lt;span style=&quot;box-sizing: border-box;&quot; class=&quot;pl-s1&quot;&gt;c&lt;/span&gt;,&lt;span style=&quot;box-sizing: border-box;&quot; class=&quot;pl-s1&quot;&gt;d&lt;/span&gt;,&lt;span style=&quot;box-sizing: border-box;&quot; class=&quot;pl-s1&quot;&gt;path&lt;/span&gt; + &lt;span style=&quot;box-sizing: border-box; color: var(--color-prettylights-syntax-string);&quot; class=&quot;pl-s&quot;&gt;&quot; k1&quot;&lt;/span&gt;);&lt;/td&gt;&lt;/tr&gt;&lt;tr style=&quot;box-sizing: border-box;&quot;&gt;&lt;td style=&quot;box-sizing: border-box; padding: 0px 10px; position: relative; width: 50px; min-width: 50px; font-family: ui-monospace, SFMono-Regular, &amp;quot;SF Mono&amp;quot;, Menlo, Consolas, &amp;quot;Liberation Mono&amp;quot;, monospace; font-size: 12px; line-height: 20px; color: var(--color-fg-subtle); text-align: right; vertical-align: top; cursor: pointer; user-select: none;&quot; data-line-number=&quot;17&quot; class=&quot;blob-num js-line-number js-code-nav-line-number js-blob-rnum&quot; id=&quot;L17&quot;&gt;&lt;/td&gt;&lt;td style=&quot;box-sizing: border-box; padding: 0px 10px; position: relative; line-height: 20px; vertical-align: top; overflow: visible; font-family: ui-monospace, SFMono-Regular, &amp;quot;SF Mono&amp;quot;, Menlo, Consolas, &amp;quot;Liberation Mono&amp;quot;, monospace; font-size: 12px; color: var(--color-fg-default); overflow-wrap: normal;&quot; class=&quot;blob-code blob-code-inner js-file-line&quot; id=&quot;LC17&quot;&gt;        &lt;span style=&quot;box-sizing: border-box; color: var(--color-prettylights-syntax-entity);&quot; class=&quot;pl-en&quot;&gt;&lt;span style=&quot;box-sizing: border-box;&quot; data-hydro-click-hmac=&quot;efbf1bcdd4b5184d4d3fe3d1d93f9807cc34a7615dccfccabea1fa3c2d9e4676&quot; data-hydro-click=&quot;{&amp;quot;event_type&amp;quot;:&amp;quot;code_navigation.click_on_symbol&amp;quot;,&amp;quot;payload&amp;quot;:{&amp;quot;action&amp;quot;:&amp;quot;click_on_symbol&amp;quot;,&amp;quot;repository_id&amp;quot;:503321403,&amp;quot;ref&amp;quot;:&amp;quot;main&amp;quot;,&amp;quot;language&amp;quot;:&amp;quot;Java&amp;quot;,&amp;quot;backend&amp;quot;:&amp;quot;ALEPH_FUZZY&amp;quot;,&amp;quot;code_nav_context&amp;quot;:&amp;quot;BLOB_VIEW&amp;quot;,&amp;quot;retry_backend&amp;quot;:&amp;quot;&amp;quot;,&amp;quot;originating_url&amp;quot;:&amp;quot;https://github.com/snow-wh/GeekBrainsPI/find-definition?q=generate&amp;amp;blob_path=src%2Fmain%2Fjava%2Flesson1%2FTask2.java&amp;amp;ref=main&amp;amp;language=Java&amp;amp;row=16&amp;amp;col=8&amp;amp;code_nav_context=BLOB_VIEW&amp;quot;,&amp;quot;user_id&amp;quot;:98263548}}&quot; class=&quot;pl-token&quot;&gt;generate&lt;/span&gt;&lt;/span&gt;(&lt;span style=&quot;box-sizing: border-box;&quot; class=&quot;pl-s1&quot;&gt;source&lt;/span&gt; * &lt;span style=&quot;box-sizing: border-box;&quot; class=&quot;pl-s1&quot;&gt;d&lt;/span&gt;, &lt;span style=&quot;box-sizing: border-box;&quot; class=&quot;pl-s1&quot;&gt;target&lt;/span&gt;,&lt;span style=&quot;box-sizing: border-box;&quot; class=&quot;pl-s1&quot;&gt;c&lt;/span&gt;,&lt;span style=&quot;box-sizing: border-box;&quot; class=&quot;pl-s1&quot;&gt;d&lt;/span&gt;,&lt;span style=&quot;box-sizing: border-box;&quot; class=&quot;pl-s1&quot;&gt;path&lt;/span&gt; + &lt;span style=&quot;box-sizing: border-box; color: var(--color-prettylights-syntax-string);&quot; class=&quot;pl-s&quot;&gt;&quot; k2&quot;&lt;/span&gt;);&lt;/td&gt;&lt;/tr&gt;&lt;tr style=&quot;box-sizing: border-box; background-color: transparent;&quot;&gt;&lt;td style=&quot;box-sizing: border-box; padding: 0px 10px; position: relative; width: 50px; min-width: 50px; font-family: ui-monospace, SFMono-Regular, &amp;quot;SF Mono&amp;quot;, Menlo, Consolas, &amp;quot;Liberation Mono&amp;quot;, monospace; font-size: 12px; line-height: 20px; color: var(--color-fg-subtle); text-align: right; vertical-align: top; cursor: pointer; user-select: none;&quot; data-line-number=&quot;18&quot; class=&quot;blob-num js-line-number js-code-nav-line-number js-blob-rnum&quot; id=&quot;L18&quot;&gt;&lt;/td&gt;&lt;td style=&quot;box-sizing: border-box; padding: 0px 10px; position: relative; line-height: 20px; vertical-align: top; overflow: visible; font-family: ui-monospace, SFMono-Regular, &amp;quot;SF Mono&amp;quot;, Menlo, Consolas, &amp;quot;Liberation Mono&amp;quot;, monospace; font-size: 12px; color: var(--color-fg-default); overflow-wrap: normal;&quot; class=&quot;blob-code blob-code-inner js-file-line&quot; id=&quot;LC18&quot;&gt;&#xa;&lt;/td&gt;&lt;/tr&gt;&lt;tr style=&quot;box-sizing: border-box;&quot;&gt;&lt;td style=&quot;box-sizing: border-box; padding: 0px 10px; position: relative; width: 50px; min-width: 50px; font-family: ui-monospace, SFMono-Regular, &amp;quot;SF Mono&amp;quot;, Menlo, Consolas, &amp;quot;Liberation Mono&amp;quot;, monospace; font-size: 12px; line-height: 20px; color: var(--color-fg-subtle); text-align: right; vertical-align: top; cursor: pointer; user-select: none;&quot; data-line-number=&quot;19&quot; class=&quot;blob-num js-line-number js-code-nav-line-number js-blob-rnum&quot; id=&quot;L19&quot;&gt;&lt;/td&gt;&lt;td style=&quot;box-sizing: border-box; padding: 0px 10px; position: relative; line-height: 20px; vertical-align: top; overflow: visible; font-family: ui-monospace, SFMono-Regular, &amp;quot;SF Mono&amp;quot;, Menlo, Consolas, &amp;quot;Liberation Mono&amp;quot;, monospace; font-size: 12px; color: var(--color-fg-default); overflow-wrap: normal;&quot; class=&quot;blob-code blob-code-inner js-file-line&quot; id=&quot;LC19&quot;&gt;&#xa;&lt;/td&gt;&lt;/tr&gt;&lt;tr style=&quot;box-sizing: border-box; background-color: transparent;&quot;&gt;&lt;td style=&quot;box-sizing: border-box; padding: 0px 10px; position: relative; width: 50px; min-width: 50px; font-family: ui-monospace, SFMono-Regular, &amp;quot;SF Mono&amp;quot;, Menlo, Consolas, &amp;quot;Liberation Mono&amp;quot;, monospace; font-size: 12px; line-height: 20px; color: var(--color-fg-subtle); text-align: right; vertical-align: top; cursor: pointer; user-select: none;&quot; data-line-number=&quot;20&quot; class=&quot;blob-num js-line-number js-code-nav-line-number js-blob-rnum&quot; id=&quot;L20&quot;&gt;&lt;/td&gt;&lt;td style=&quot;box-sizing: border-box; padding: 0px 10px; position: relative; line-height: 20px; vertical-align: top; overflow: visible; font-family: ui-monospace, SFMono-Regular, &amp;quot;SF Mono&amp;quot;, Menlo, Consolas, &amp;quot;Liberation Mono&amp;quot;, monospace; font-size: 12px; color: var(--color-fg-default); overflow-wrap: normal;&quot; class=&quot;blob-code blob-code-inner js-file-line&quot; id=&quot;LC20&quot;&gt;    }&lt;/td&gt;&lt;/tr&gt;&lt;tr style=&quot;box-sizing: border-box;&quot;&gt;&lt;td style=&quot;box-sizing: border-box; padding: 0px 10px; position: relative; width: 50px; min-width: 50px; font-family: ui-monospace, SFMono-Regular, &amp;quot;SF Mono&amp;quot;, Menlo, Consolas, &amp;quot;Liberation Mono&amp;quot;, monospace; font-size: 12px; line-height: 20px; color: var(--color-fg-subtle); text-align: right; vertical-align: top; cursor: pointer; user-select: none;&quot; data-line-number=&quot;21&quot; class=&quot;blob-num js-line-number js-code-nav-line-number js-blob-rnum&quot; id=&quot;L21&quot;&gt;&lt;/td&gt;&lt;td style=&quot;box-sizing: border-box; padding: 0px 10px; position: relative; line-height: 20px; vertical-align: top; overflow: visible; font-family: ui-monospace, SFMono-Regular, &amp;quot;SF Mono&amp;quot;, Menlo, Consolas, &amp;quot;Liberation Mono&amp;quot;, monospace; font-size: 12px; color: var(--color-fg-default); overflow-wrap: normal;&quot; class=&quot;blob-code blob-code-inner js-file-line&quot; id=&quot;LC21&quot;&gt;}&lt;/td&gt;&lt;/tr&gt;&lt;/tbody&gt;&lt;/table&gt;" style="text;whiteSpace=wrap;html=1;" vertex="1" parent="1">
          <mxGeometry x="820" y="40" width="550" height="460" as="geometry" />
        </mxCell>
      </root>
    </mxGraphModel>
  </diagram>
</mxfile>
